<svg width="11" height="14" viewBox="0 0 11 14" fill="none" xmlns="http://www.w3.org/2000/svg">
<path d="M6.5625 0H2C1.46974 0.000579017 0.961373 0.211479 0.586426 0.586426C0.211479 0.961373 0.000579017 1.46974 0 2V12C0.000579017 12.5303 0.211479 13.0386 0.586426 13.4136C0.961373 13.7885 1.46974 13.9994 2 14H6.5625V0Z" fill="black"/>
<path d="M9 0H8.4375V14H9C9.53026 13.9994 10.0386 13.7885 10.4136 13.4136C10.7885 13.0386 10.9994 12.5303 11 12V2C10.9994 1.46974 10.7885 0.961373 10.4136 0.586426C10.0386 0.211479 9.53026 0.000579017 9 0Z" fill="black"/>
</svg>
