<svg width="16" height="16" viewBox="0 0 16 16" fill="none" xmlns="http://www.w3.org/2000/svg">
<path fill-rule="evenodd" clip-rule="evenodd" d="M5.60911 8.16081L11.724 8.16081L10.0745 9.81033C9.8254 10.0595 9.8254 10.4634 10.0745 10.7125C10.3236 10.9616 10.7276 10.9616 10.9767 10.7125L14.1663 7.5229L10.9767 4.33331C10.7276 4.08419 10.3236 4.08419 10.0745 4.33331C9.8254 4.58244 9.8254 4.98634 10.0745 5.23546L11.724 6.88498L5.60911 6.88498C5.2568 6.88498 4.97119 7.17058 4.97119 7.5229C4.97119 7.87521 5.2568 8.16081 5.60911 8.16081ZM7.52285 13.2641C7.87516 13.2641 8.16077 12.9785 8.16077 12.6262C8.16077 12.2739 7.87516 11.9883 7.52285 11.9883L2.41952 11.9883L2.41952 3.05748L7.52285 3.05748C7.87516 3.05748 8.16077 2.77187 8.16077 2.41956C8.16077 2.06725 7.87516 1.78165 7.52285 1.78165L2.41952 1.78165C1.71489 1.78165 1.14368 2.35286 1.14368 3.05748L1.14368 11.9883C1.14368 12.6929 1.71489 13.2641 2.41952 13.2641L7.52285 13.2641Z" fill="#4F6D9B"/>
</svg>
