<svg width="16" height="17" viewBox="0 0 16 17" fill="none" xmlns="http://www.w3.org/2000/svg">
<g clip-path="url(#clip0)">
<path fill-rule="evenodd" clip-rule="evenodd" d="M13.8152 12.7607L12.4009 14.1751L10.5905 13.6708L10.0728 13.8843L9.14345 15.5159H7.14385L6.21962 13.8787L5.70242 13.6619L3.89228 14.1599L2.47858 12.7462L2.98288 10.9359L2.76932 10.4181L1.1377 9.48804V7.4885L2.77559 6.56429L2.99242 6.04715L2.49435 4.237L3.90752 2.82384L5.71784 3.32885L6.23511 3.11552L7.1631 1.48242H9.16321L10.0874 3.12032L10.6046 3.33715L12.4144 2.83916L13.8298 4.25248L13.3254 6.06309L13.5388 6.58048L15.1719 7.50847V9.50858L13.5341 10.4327L13.3171 10.951L13.8152 12.7607ZM9.43057 8.4995C9.43057 9.20413 8.85936 9.77534 8.15474 9.77534C7.45011 9.77534 6.8789 9.20413 6.8789 8.4995C6.8789 7.79488 7.45011 7.22367 8.15474 7.22367C8.85936 7.22367 9.43057 7.79488 9.43057 8.4995Z" fill="#4F6D9B"/>
</g>
<defs>
<clipPath id="clip0">
<rect width="15.31" height="15.31" fill="white" transform="translate(0.5 0.844727)"/>
</clipPath>
</defs>
</svg>
