<svg width="115" height="115" viewBox="0 0 115 115" fill="none" xmlns="http://www.w3.org/2000/svg">
<circle cx="57.5" cy="57.5" r="53" fill="#F2F5FD" stroke="white" stroke-width="9"/>
<mask id="mask0" mask-type="alpha" maskUnits="userSpaceOnUse" x="6" y="6" width="103" height="103">
<circle cx="57.4999" cy="57.4999" r="50.7353" fill="#F2F5FD"/>
</mask>
<g mask="url(#mask0)">
<path d="M10.9059 108.733C10.1561 110.677 10.9921 112.916 12.7731 113.734C13.2011 113.931 13.6606 114.032 14.1249 114.033H99.0031C100.179 113.985 101.256 113.304 101.879 112.216C102.511 111.101 102.613 109.722 102.152 108.511C101.865 107.748 101.571 106.984 101.228 106.266C98.0514 99.3309 87.9323 95.2601 73.8594 89.6236L71.0603 88.5161C70.3744 88.2359 69.9198 87.5206 69.9196 86.7213V80.3515C69.9196 79.8449 70.1033 79.3587 70.4306 78.9995C73.3061 75.893 75.1589 71.8352 75.7001 67.4591C75.7352 67.114 75.8616 66.7876 76.064 66.5197C76.9056 65.2874 77.4907 63.8694 77.7785 62.3648C78.5035 59.3878 78.158 56.2208 76.8127 53.5129C76.5542 53.0559 76.4855 52.5007 76.6238 51.9853C79.1729 46.3537 80.2504 40.0642 79.7379 33.8079C78.2473 25.7044 68.6671 22.5883 60.1996 22.3515C53.8926 21.6696 47.6008 23.7988 42.7537 28.2553C42.509 28.5833 42.172 28.8142 41.795 28.9122C39.7409 29.3948 37.9164 30.6727 36.6585 32.5095C34.0786 38.6112 34.0327 45.6302 36.5325 51.7715C36.6747 52.3034 36.6008 52.8764 36.3296 53.3448C34.9227 56.0758 34.5461 59.2976 35.2799 62.3266C35.5685 63.8346 36.1561 65.2554 37.0014 66.4891C37.2024 66.7579 37.3286 67.0839 37.3653 67.4285C37.908 71.802 39.7606 75.8568 42.6348 78.9613C42.962 79.3205 43.1457 79.8066 43.1456 80.3132V86.6829C43.1475 87.4835 42.6881 88.1989 41.9979 88.4701L39.1988 89.5852C25.2237 95.2601 15.0767 99.3385 11.9066 106.266C11.5637 107.014 11.2698 107.763 10.9059 108.733Z" fill="#BFD3F3"/>
</g>
</svg>
