<svg width="16" height="16" viewBox="0 0 16 16" fill="none" xmlns="http://www.w3.org/2000/svg">
<path d="M9.74572 13.9209H3.15613" stroke="#242424" stroke-width="0.458752" stroke-linecap="round"/>
<path d="M11.0961 2.8425L13.6433 3.4512L12.1808 9.57568L9.63365 8.96698L11.0961 2.8425ZM10.5186 1.90604L8.6925 9.55383L12.7452 10.5187L14.5829 2.87684L10.5249 1.90604H10.5186Z" fill="#242424" stroke="#242424" stroke-width="0.279041"/>
<path d="M10.9088 1.55176C10.8215 1.55181 10.7368 1.58125 10.6683 1.63533C10.5997 1.68941 10.5514 1.76498 10.5311 1.84987L10.3828 2.47418L14.4486 3.44498L14.5953 2.82067C14.6074 2.77106 14.6096 2.71956 14.6016 2.66912C14.5937 2.61868 14.5759 2.57031 14.5492 2.52679C14.5225 2.48327 14.4875 2.44545 14.4461 2.41553C14.4047 2.38561 14.3579 2.36417 14.3082 2.35244L10.9993 1.56269C10.9697 1.55531 10.9393 1.55164 10.9088 1.55176V1.55176Z" fill="#242424" stroke="#242424" stroke-width="0.279041"/>
<path d="M9.40434 9.91437L11.9515 10.5231L11.7954 11.1708C11.2606 11.3516 10.7764 11.6571 10.3829 12.062C10.2998 12.1548 10.2226 12.2528 10.152 12.3554C10.1358 12.1695 10.1018 11.9855 10.0505 11.806C9.898 11.3152 9.62735 10.8693 9.26231 10.5075L9.40278 9.91437H9.40434ZM8.92362 9.00132C8.89383 9.00146 8.86494 9.0115 8.84148 9.02987C8.81803 9.04824 8.80135 9.07388 8.79408 9.10277L8.41481 10.7026C8.40888 10.7271 8.41014 10.7528 8.41845 10.7766C8.42675 10.8004 8.44175 10.8213 8.46163 10.8368C8.85451 11.1403 9.1475 11.5546 9.30289 12.0261C9.47145 12.5973 9.35283 13.3793 9.30289 13.6384C9.29793 13.6644 9.30094 13.6912 9.31152 13.7155C9.32211 13.7397 9.33977 13.7602 9.3622 13.7742L10.0521 14.2018C10.073 14.2154 10.0974 14.2224 10.1223 14.2221C10.1524 14.222 10.1815 14.2116 10.2048 14.1925C10.2281 14.1735 10.2442 14.147 10.2503 14.1175C10.3236 13.7867 10.5156 13.0827 10.9636 12.5817C11.3896 12.1135 12.1357 11.8685 12.3683 11.8013C12.3913 11.7949 12.4121 11.7824 12.4286 11.7651C12.4451 11.7478 12.4566 11.7263 12.4619 11.703L12.8521 10.0705C12.8592 10.0368 12.8528 10.0016 12.8345 9.97253C12.8161 9.9434 12.7872 9.92255 12.7538 9.91437L8.9564 9.00444H8.92518L8.92362 9.00132Z" fill="#242424" stroke="#242424" stroke-width="0.279041" stroke-linecap="round" stroke-linejoin="round"/>
<path d="M14.1699 3.42506L10.4666 2.65411L8.802 9.34055L12.4441 10.3476L14.1699 3.42506Z" fill="#242424"/>
<path fill-rule="evenodd" clip-rule="evenodd" d="M1.42261 13.9209C1.42261 13.5099 1.75576 13.1768 2.16672 13.1768H9.68789C10.0989 13.1768 10.432 13.5099 10.432 13.9209C10.432 14.3319 10.0989 14.665 9.68789 14.665H2.16672C1.75576 14.665 1.42261 14.3319 1.42261 13.9209Z" fill="#242424"/>
<path fill-rule="evenodd" clip-rule="evenodd" d="M1.37915 9.78323C1.37915 9.37227 1.7123 9.03912 2.12326 9.03912H5.53463C5.94559 9.03912 6.27874 9.37227 6.27874 9.78323C6.27874 10.1942 5.94559 10.5273 5.53463 10.5273H2.12326C1.7123 10.5273 1.37915 10.1942 1.37915 9.78323Z" fill="#242424"/>
</svg>
